PathFileType	4	(X/Y/Z)	DARI_DATA/Captury_Subj5_bilateral_squat03.trc
DataRate	CameraRate	NumFrames	NumMarkers	Units	OrigDataRate	OrigDataStartFrame	OrigNumFrames
60	60	7	47	mm	59.99879837036133	178	236
Frame#	Time		LeftUpLeg_		RightUpLeg_		LeftLeg_		RightLeg_		LeftFoot_		RightFoot_		LeftToeBase_		RightToeBase_		Knee_Lateral_r		Knee_Lateral_l		Ankle_Lateral_r		Ankle_Lateral_l		LeftArm_		LeftForeArm_		LeftHand_		LeftHandEE		RightArm_		RightForeArm_		RightHand_		RightHandEE		Spine_		Spine1_		Spine2_		Spine3_		Spine4_		Spine5_		Spine_x		Spine_y		Spine_z		RASI		LASI		RIPS		LIPS		RTHI		LTHI		RTIB		LTIB		RTOE		LTOE		RHEE		LHEE		RHipAngles		LHipAngles		RKneeAngles		LKneeAngles		RAnkleAngles		LAnkleAngles
			X1	Y1	Z1	X2	Y2	Z2	X3	Y3	Z3	X4	Y4	Z4	X5	Y5	Z5	X6	Y6	Z6	X7	Y7	Z7	X8	Y8	Z8	X9	Y9	Z9	X10	Y10	Z10	X11	Y11	Z11	X12	Y12	Z12	X13	Y13	Z13	X14	Y14	Z14	X15	Y15	Z15	X16	Y16	Z16	X17	Y17	Z17	X18	Y18	Z18	X19	Y19	Z19	X20	Y20	Z20	X21	Y21	Z21	X22	Y22	Z22	X23	Y23	Z23	X24	Y24	Z24	X25	Y25	Z25	X26	Y26	Z26	X27	Y27	Z27	X28	Y28	Z28	X29	Y29	Z29	X30	Y30	Z30	X31	Y31	Z31	X32	Y32	Z32	X33	Y33	Z33	X34	Y34	Z34	X35	Y35	Z35	X36	Y36	Z36	X37	Y37	Z37	X38	Y38	Z38	X39	Y39	Z39	X40	Y40	Z40	X41	Y41	Z41	X42	Y42	Z42	X43	Y43	Z43	X44	Y44	Z44	X45	Y45	Z45	X46	Y46	Z46	X47	Y47	Z47

178	2.95000	-97.55636	974.39099	108.74707	93.82853	975.51099	102.81280	-147.62785	521.32678	11.24100	142.81354	524.23340	-3.16229	-180.20874	96.48428	75.93800	186.69136	99.42523	54.72631	-211.61157	33.69951	-51.80339	198.49338	38.90243	-77.34802	196.23630	527.13251	-2.80711	-200.87209	523.36438	16.08070	239.99413	103.63086	76.47910	-231.58093	100.48373	101.95645	-155.21680	1575.92224	113.38055	-251.07504	1600.06213	-208.11725	-256.69528	1627.72717	-495.85815	-251.29454	1623.92578	-601.16650	156.63754	1567.52637	100.33454	247.89925	1560.01904	-223.31247	234.25969	1593.97815	-510.10947	226.37805	1595.41125	-615.32019	-2.15463	1081.60303	116.53374	-3.21047	1196.02405	97.00777	-3.07111	1279.83740	114.05140	-2.75403	1376.49084	162.00514	-1.58031	1531.97461	176.86345	1663134.00000	0.00000	1663136.00000	51.52073	1081.91711	114.86942	-2.63049	1135.04480	111.27369	-0.52916	1086.87524	169.95168	155.25583	1037.82715	-13.50623	-166.79636	1035.94238	-3.52034	42.04646	1052.95264	150.40909	-43.83413	1052.44995	153.07198	191.30023	770.60071	57.68555	-194.99060	767.48230	73.80708	205.78816	334.39612	6.61449	-208.64757	266.54010	31.59666	206.07806	20.60437	-157.10066	-226.87074	10.74459	-129.21826	179.04312	28.24305	112.83907	-189.34827	29.19859	138.32066	-17.91502	3.16643	1.51160	-17.37255	3.15969	2.82480	-15.07874	-0.27788	0.00453	-15.01771	-0.16302	-0.08677	1.40543	4.83939	-4.62703	2.36026	2.93617	11.67064
179	2.96667	-97.32671	975.39001	105.89780	94.04041	976.85297	99.48329	-147.20096	521.28845	13.23676	142.87170	524.36945	-1.29281	-180.36456	96.18054	75.86059	186.12379	99.24945	54.74722	-211.94083	33.83426	-52.05268	198.16945	38.48648	-77.19471	196.29491	527.27240	-1.05247	-200.44449	523.35028	18.07422	239.48804	103.39598	76.36017	-231.74622	100.15660	101.86394	-155.04674	1575.80359	114.07420	-251.37224	1600.08313	-207.27338	-256.94833	1627.99902	-494.99084	-250.35538	1623.42310	-600.20044	156.66832	1567.13123	100.29144	248.05049	1559.66284	-223.32239	234.39587	1593.56055	-510.12589	227.45810	1594.37878	-615.40961	-2.07216	1082.69446	114.19704	-3.30901	1196.97107	95.45772	-3.17408	1280.39246	113.04540	-2.74657	1376.45020	161.60144	-1.43001	1531.56140	177.43562	1663134.00000	0.00000	1663136.00000	51.59822	1083.10474	112.39804	-2.64460	1136.17114	109.31530	-0.31800	1087.59253	167.64651	155.07248	1040.08398	-16.54964	-166.94983	1037.62231	-5.75564	42.26011	1053.87549	147.75658	-43.61251	1053.21899	150.63498	191.44678	771.42981	56.60246	-194.66737	768.07159	73.19756	205.52206	334.37866	7.53813	-208.55904	266.48492	32.32466	205.91432	20.15378	-156.92398	-227.27919	11.21442	-129.55046	178.32718	28.17418	112.97095	-189.48990	28.69881	138.03320	-16.84247	3.05615	1.58822	-16.36376	3.22734	2.69062	-14.17518	-0.38771	-0.02304	-14.12408	-0.13977	-0.10660	1.74717	5.09228	-4.56261	2.45821	3.01828	11.63801
180	2.98333	-96.98985	975.89020	103.58574	94.41238	977.38928	98.33324	-146.28415	520.85681	15.28802	142.76572	524.26965	0.21927	-180.72096	95.51593	75.60083	185.72417	98.89505	54.52715	-211.58653	33.54728	-52.66887	198.78377	37.73304	-77.13367	196.19331	527.04480	0.77955	-199.56749	522.99359	19.62885	238.97012	103.10497	76.41779	-232.33412	99.50365	101.13976	-154.86153	1575.81531	114.45074	-252.56523	1600.03760	-206.48489	-256.95856	1627.83826	-494.23407	-249.20056	1623.10449	-599.35724	156.81070	1567.01221	100.32945	247.88547	1559.13159	-223.36125	234.56920	1592.63403	-510.22711	228.42175	1593.17273	-615.56177	-1.79483	1083.16248	112.91933	-2.90060	1197.42542	94.59228	-2.79752	1280.70605	112.44945	-2.44609	1376.53809	161.27776	-1.08970	1531.52454	177.51929	1663134.00000	0.00000	1663136.00000	51.88540	1083.58289	111.44623	-2.34160	1136.65955	108.26319	-0.36381	1087.83167	166.39890	156.13945	1041.11938	-17.05727	-165.94191	1038.59680	-8.21866	42.33603	1054.20215	146.62227	-43.55233	1053.52942	148.97923	191.58209	771.51062	57.13275	-194.14825	768.28149	72.21225	205.36679	334.23764	8.49686	-208.23204	266.06952	32.60649	207.13440	19.24910	-156.76682	-226.45302	11.24579	-130.35065	177.54071	27.99472	112.91090	-190.32822	27.88573	137.53909	-16.29901	2.90185	1.62834	-15.51420	3.25445	2.52541	-13.61021	-0.25289	-0.05494	-13.24672	-0.14960	-0.09464	2.18947	5.20184	-4.53019	2.58624	3.18082	11.61819
181	3.00000	-96.93687	976.46771	100.47720	94.48625	977.92499	96.03683	-146.11156	520.42932	17.45594	142.68684	523.93542	1.95271	-180.87720	94.82123	75.65750	185.47818	98.30289	54.33710	-211.42084	33.07270	-52.79532	198.82812	36.65812	-77.06923	196.11526	526.66595	2.64012	-199.41891	522.66577	21.43696	238.67697	102.57938	76.32932	-232.65134	98.75028	100.87770	-154.45164	1575.77441	114.88535	-253.44330	1599.66479	-205.68027	-256.99042	1627.48645	-493.43909	-247.90616	1622.99915	-598.46674	157.11783	1566.64282	100.57250	247.68938	1558.55334	-223.25424	234.84959	1591.43188	-510.21405	228.97182	1591.53674	-615.56543	-1.74247	1083.64075	110.89483	-2.70612	1197.91064	93.23966	-2.58978	1280.98840	111.55914	-2.26828	1376.45532	160.88889	-0.77205	1531.25476	177.92270	1663134.00000	0.00000	1663136.00000	51.94362	1084.04944	109.64950	-2.25006	1137.16663	106.57827	-0.53407	1087.96777	164.40866	156.72021	1042.36633	-18.68443	-165.39630	1039.91418	-11.21244	42.23600	1054.44836	144.59680	-43.66174	1053.79443	146.58932	191.57672	771.61072	56.87970	-194.09488	768.57495	71.04329	205.24203	333.85593	9.44950	-208.13530	265.56128	33.24606	207.36539	17.95657	-156.63177	-226.08643	10.96373	-130.57027	177.12759	27.61821	112.95821	-190.59937	27.07486	137.45070	-15.44098	2.83301	1.55526	-14.44775	3.29174	2.40792	-12.84652	-0.21708	-0.07267	-12.29763	-0.28418	-0.07035	2.66890	5.21161	-4.53859	2.74784	3.39819	11.59180
182	3.01667	-96.40382	977.22351	97.27810	95.03017	979.10394	93.51588	-144.69943	519.84045	21.44904	142.72218	524.15332	3.92075	-181.53152	93.81531	75.15453	184.94588	98.18768	54.00934	-211.77075	33.03469	-53.83081	198.35129	36.23986	-77.24873	196.15326	526.81024	4.68531	-198.03577	522.10419	25.00376	238.11642	102.44330	76.07381	-233.49409	97.76492	99.98091	-154.25766	1575.58765	115.19368	-254.21744	1599.23108	-205.08968	-256.82065	1627.00891	-492.86285	-246.93469	1622.96680	-597.83618	157.15956	1566.25708	101.07878	247.31641	1557.58154	-222.84850	234.71106	1590.23657	-509.84418	229.93530	1589.90686	-615.25079	-1.47127	1084.53210	108.64633	-2.55136	1198.75525	91.66396	-2.55216	1281.57251	110.47216	-2.36698	1376.58582	160.36703	-0.81708	1531.12927	178.34457	1663134.00000	0.00000	1663136.00000	52.21786	1085.05945	107.59119	-2.07606	1138.08093	104.63666	-0.45851	1088.55273	162.18811	157.52840	1044.33557	-20.61359	-164.60640	1041.17126	-14.28273	42.45057	1055.23706	142.33310	-43.45205	1054.39331	144.02132	191.88235	772.27496	56.54437	-193.22052	768.80328	70.57654	205.04253	333.96069	10.44340	-207.80197	265.06757	34.21057	206.95708	17.43410	-156.77930	-226.18784	11.55504	-131.82825	176.40833	27.64246	112.77135	-191.73102	25.68972	136.45186	-14.55526	2.59400	1.50117	-13.17356	3.36607	2.18684	-11.97539	-0.21073	-0.07202	-10.77055	-0.13820	-0.05314	3.10881	5.19183	-4.55789	2.94053	3.62186	11.56303
183	3.03333	-96.69332	977.83710	95.14661	94.74917	979.52808	91.74786	-144.67404	519.76117	23.41011	142.40688	523.92090	5.53484	-181.82101	93.45319	74.59590	184.97057	97.78937	53.89369	-211.79915	32.96055	-54.58566	198.34203	35.57468	-77.24159	195.83817	526.58002	6.27655	-198.02791	522.06580	26.66227	238.14383	102.12608	75.93575	-233.92009	97.34226	99.14417	-153.80508	1575.25195	115.37685	-254.67325	1598.60400	-204.64301	-256.58826	1626.60889	-492.39960	-245.84737	1622.76721	-597.29645	157.54004	1565.90845	101.69615	247.05283	1556.72705	-222.39577	234.73199	1588.65637	-509.48547	230.70160	1589.05542	-614.92297	-1.66797	1084.99500	107.14272	-2.58574	1199.19141	90.64568	-2.51519	1281.82654	109.80338	-2.28375	1376.52002	160.09944	-0.54412	1530.88208	178.74492	1663134.00000	0.00000	1663136.00000	52.02355	1085.46924	106.18952	-2.20830	1138.56079	103.35738	-0.75061	1088.78918	160.70274	157.52914	1045.17224	-21.98972	-164.61996	1042.32678	-16.27052	42.15986	1055.51147	140.78738	-43.74657	1054.75269	142.31250	191.58597	772.42371	56.30947	-193.40680	769.18585	69.91554	204.87050	333.74973	11.26209	-207.85513	264.92664	34.43388	206.92355	16.67042	-156.75145	-226.05177	11.69739	-132.67259	176.48474	27.36294	112.80548	-192.12868	25.18708	135.71857	-13.88886	2.61810	1.37947	-12.38342	3.30105	2.00740	-11.31875	-0.17427	-0.06572	-9.91779	-0.19966	-0.03985	3.45871	5.18060	-4.57341	3.13110	3.81661	11.54551
184	3.05000	-96.43066	978.12152	93.68973	95.01771	980.01471	90.76182	-144.26389	519.59326	24.80244	142.68076	523.91980	7.17161	-182.14482	93.15045	74.29854	184.62497	97.53897	53.84464	-211.89772	32.82162	-55.01160	198.19339	35.26852	-77.24390	196.11133	526.56152	8.01887	-197.63177	521.94104	27.78230	237.75858	101.81282	75.99431	-234.36081	97.06828	98.59251	-153.78406	1574.75647	115.33938	-255.08138	1597.98096	-204.55414	-256.27249	1626.11853	-492.30161	-244.70004	1622.52429	-597.11871	157.48019	1565.44226	102.19491	246.99652	1555.83691	-221.88382	234.77179	1587.73914	-508.98071	231.74843	1587.80505	-614.45264	-1.54334	1085.34033	106.22233	-2.51260	1199.48608	90.02908	-2.52633	1281.97656	109.39384	-2.42574	1376.44824	159.91510	-0.71527	1530.67078	178.93036	1663134.00000	0.00000	1663136.00000	52.14983	1085.87134	105.40118	-2.12872	1138.91614	102.58829	-0.76005	1088.98267	159.79501	158.00751	1046.04602	-22.63517	-164.15152	1042.86023	-17.70825	42.23240	1055.80505	139.88945	-43.67667	1054.95557	141.20329	191.84830	772.67920	56.68478	-193.11188	769.34418	69.39604	204.89709	333.64856	12.22676	-207.78433	264.79340	34.60978	206.92841	16.40001	-156.74551	-225.98422	11.71088	-133.16998	175.89229	27.14171	112.75520	-192.66858	24.83472	135.32886	-13.40873	2.52775	1.37968	-11.83772	3.37233	1.86532	-10.76573	-0.23073	-0.06282	-9.32977	-0.19361	-0.02774	3.71352	5.19114	-4.59176	3.28135	3.96355	11.54163
